<svg width="18" height="18" fill="none" xmlns="http://www.w3.org/2000/svg"><path fill-rule="evenodd" clip-rule="evenodd" d="M2.25 3.938v11.25c0 .62.504 1.124 1.125 1.124h11.25c.621 0 1.125-.503 1.125-1.125V3.938c0-.62-.504-1.124-1.125-1.124H13.5v1.124a1.125 1.125 0 01-2.25 0V2.813h-4.5v1.124a1.125 1.125 0 01-2.25 0V2.813H3.375c-.621 0-1.125.503-1.125 1.124z" fill="#F5F4F4"/><path d="M10.969 9.844l-2.25 2.812-1.125-1.35" stroke="#13163F" stroke-width="2" stroke-linecap="round" stroke-linejoin="round"/><path fill-rule="evenodd" clip-rule="evenodd" d="M2.25 6.188h13.5v.562H2.25v-.563z" fill="#13163F"/><path d="M12.375 3.938v-2.25m-6.75 2.25v-2.25" stroke="#F5F4F4" stroke-width="2" stroke-linecap="round" stroke-linejoin="round"/></svg>