<?xml version="1.0" encoding="iso-8859-1"?>
<!-- Uploaded to: SVG Repo, www.svgrepo.com, Generator: SVG Repo Mixer Tools -->
<svg fill="#0047AB" height="24px" width="24px" version="1.1" id="Layer_1" xmlns="http://www.w3.org/2000/svg" xmlns:xlink="http://www.w3.org/1999/xlink" 
	 viewBox="0 0 512 512" xml:space="preserve">
<g>
	<g>
		<path d="M256,0C114.51,0,0,114.497,0,256c0,141.49,114.497,256,256,256c141.49,0,256-114.497,256-256C512,114.51,397.503,0,256,0z
			 M273.067,373.191c0,9.425-7.641,17.067-17.067,17.067s-17.067-7.641-17.067-17.067V244.622c0-9.425,7.641-17.067,17.067-17.067
			s17.067,7.641,17.067,17.067V373.191z M256.569,209.351c-24.154,0-43.804-19.651-43.804-43.804
			c0-24.154,19.651-43.804,43.804-43.804c24.154,0,43.804,19.651,43.804,43.804C300.373,189.701,280.723,209.351,256.569,209.351z"
			/>
	</g>
</g>
</svg>